# xmcd CD database file
#
# Track frame offsets:
#	150
#	20120
#	47252
#
# Disc length: 894 seconds
#
# Revision: 2
# Processed by: cddbd v1.4PL0 Copyright (c) Steve Scherf et al.
# Submitted via: CDex 1.50Beta7
#
DISCID=1b037c03
DTITLE=SEXY WORLD - F.O.H
DYEAR=1900
DGENRE=Blues
TTITLE0=SEXY WORLD
TTITLE1=SEXY WORLD MINE Club Mix
TTITLE2=SEXY WORLD (Instrumental)
EXTD=
EXTT0=
EXTT1=
EXTT2=
PLAYORDER=
